<?xml version="1.0" encoding="utf-8"?>
<!-- Generator: Adobe Illustrator 26.3.1, SVG Export Plug-In . SVG Version: 6.00 Build 0)  -->
<svg version="1.1" id="Layer_1" xmlns="http://www.w3.org/2000/svg" xmlns:xlink="http://www.w3.org/1999/xlink" x="0px" y="0px"
	 viewBox="0 0 528 127" style="enable-background:new 0 0 528 127;" xml:space="preserve">
<style type="text/css">
	.st0{fill:url(#SVGID_1_);}
	.st1{fill:url(#SVGID_00000015317810354742558990000015578759279204286124_);}
	.st2{fill:url(#SVGID_00000129207220508541643060000006551393005303266480_);}
	.st3{fill:url(#SVGID_00000038373732388644973890000003468663848428287620_);}
	.st4{fill:url(#SVGID_00000055682904664254768200000004938831286494545855_);}
	.st5{fill:#233966;}
</style>
<g id="Warstwa_2">
</g>
<g id="logotyp">
	<g>
		
			<linearGradient id="SVGID_1_" gradientUnits="userSpaceOnUse" x1="69.157" y1="112.1391" x2="69.157" y2="16.727" gradientTransform="matrix(1 0 0 -1 0 128)">
			<stop  offset="0" style="stop-color:#00BFA6"/>
			<stop  offset="1" style="stop-color:#008C8C"/>
		</linearGradient>
		<path class="st0" d="M100,107.5C100,107.5,100,107.5,100,107.5C99.9,107.5,99.9,107.5,100,107.5c-1.1-0.5-2.2-1.2-3.2-2.1
			c-1.3-1.2-2.4-2.7-3.3-4.2c-0.1-0.1-0.2-0.3-0.2-0.4c-0.2-0.3-0.3-0.5-0.5-0.8c-0.1-0.1-0.1-0.3-0.2-0.4c-1.4-2.5-2.1-4.7-2.1-4.7
			s0,0,0,0c-0.2-0.6-0.5-1.2-0.7-1.7c-3.4-9.2-5.5-19-7.9-28.5c8.7-1.6,16.5-5.8,20.5-14.5c4.3-9.5,1.4-21.2-6.7-27.7
			c-6.9-5.5-15.6-6.5-24.1-6.5c-6.7,0-31.3,0-36.9,0c-1.1,0-7.6-0.1-7.6,1.9v91.3c0,2.7,15.2,2.8,15.2,0c0.2-26.6,0-89.4,0-89.4
			s27.8,0,30.1,0c0.4,0,0.9,0,1.4,0c0.2,0.1,0.8,0.2,1,0.3c8.8,2.8,14.5,11.6,14.5,20.7c0,5.1-1.7,10.2-5,14.1c-1.6,2-3.6,3.7-5.9,5
			c-1,0.6-2.2,1.1-3.4,1.5c-0.2,0.1-0.8,0.2-1.1,0.2c-4.6,0-9.3,0-13.9,0c-1.2,0-7.6-0.1-7.6,1.9c0,1.9,6.8,1.9,7.6,1.9h6.9
			C69.1,74,71,82.8,74,91.4c2.1,6,4.9,13.3,10.6,16.9c6.2,3.9,17.1,4,23.5,0.6c1.1-0.6,2.1-1.3,3.1-2.2c0,0,0,0,0,0
			C110,107.3,104.9,109.6,100,107.5z"/>
		
			<linearGradient id="SVGID_00000136393950501803861300000012579149111498295952_" gradientUnits="userSpaceOnUse" x1="121.145" y1="26.4042" x2="121.145" y2="107.6736" gradientTransform="matrix(1 0 0 -1 0 128)">
			<stop  offset="0" style="stop-color:#00BFA6"/>
			<stop  offset="1" style="stop-color:#008C8C"/>
		</linearGradient>
		<path style="fill:url(#SVGID_00000136393950501803861300000012579149111498295952_);" d="M126.8,22.2c-3.1,3.4-4.6,7.3-6.2,11.5
			c-3.6,9.7-5.8,19.9-8.4,29.9c-2.5,9.6-4.5,19.3-7.9,28.7c-1,2.7-2.1,5.5-3.5,8.1c2,1.3,9.6,3.1,15.3-2.6c2.1-2.1,2.6-3.6,4-7.2
			c3-8.8,5-17.9,7.3-26.9c2.5-9.6,4.5-19.3,7.9-28.7c1.3-3.6,2.8-7.2,4.9-10.4c0.5-0.7,0.6-0.7,1.2-1.4
			C136.1,18.2,128,21,126.8,22.2z"/>
		
			<linearGradient id="SVGID_00000062901508484335108760000017050330348130961844_" gradientUnits="userSpaceOnUse" x1="253.497" y1="112.4289" x2="253.497" y2="17.0077" gradientTransform="matrix(1 0 0 -1 0 128)">
			<stop  offset="0" style="stop-color:#00BFA6"/>
			<stop  offset="1" style="stop-color:#008C8C"/>
		</linearGradient>
		<path style="fill:url(#SVGID_00000062901508484335108760000017050330348130961844_);" d="M282.7,107.3c-0.1-0.1-1.2-0.3-2.2-1.1
			c-1.2-1-2.2-2.1-3.1-3.4c-2.3-3.2-3.8-6.9-5.1-10.6c-3.4-9.4-5.5-19.2-7.9-28.8c-2.3-9.3-4.4-18.8-7.5-27.9
			c-2.1-6-4.9-13.3-10.6-16.9c-6.2-3.9-17.1-4-23.5-0.6c-1.1,0.6-2.2,1.3-3.1,2.2c0,0,0,0,0.1,0c1.4-0.7,8.6-4,14.3,1.3
			c3.9,3.7,6.3,10.5,6.3,10.5s0,0,0-0.1c0.2,0.6,0.5,1.2,0.7,1.8c3.3,9,5.4,18.4,7.7,27.7c-4,0-8,0-12.1,0c-1.2,0-7.6-0.1-7.6,1.9
			c0,1.9,6.8,1.9,7.6,1.9c4.3,0,8.7,0,13,0l0,0.1c2.6,10.7,4.8,21.8,9.4,31.9c1.6,3.5,3.5,7.2,6.5,9.8c3.9,3.3,9.1,3.9,14.1,4
			c1.2,0,7.6,0.1,7.6-1.9C287.3,107.9,284.9,107.5,282.7,107.3z"/>
		
			<linearGradient id="SVGID_00000076604564632538495240000003658460248736529570_" gradientUnits="userSpaceOnUse" x1="165.4465" y1="112.4289" x2="165.4465" y2="16.7271" gradientTransform="matrix(1 0 0 -1 0 128)">
			<stop  offset="0" style="stop-color:#00BFA6"/>
			<stop  offset="1" style="stop-color:#008C8C"/>
		</linearGradient>
		<path style="fill:url(#SVGID_00000076604564632538495240000003658460248736529570_);" d="M191.4,107.5
			C191.4,107.5,191.3,107.5,191.4,107.5C191.3,107.5,191.3,107.5,191.4,107.5c-1.1-0.5-2.2-1.2-3.2-2.1c-1.3-1.2-2.4-2.7-3.3-4.2
			c-0.1-0.1-0.2-0.3-0.2-0.4c-0.2-0.3-0.3-0.5-0.5-0.8c-0.1-0.1-0.1-0.3-0.2-0.4c-1.4-2.5-2.1-4.7-2.1-4.7s0,0,0,0
			c-0.2-0.6-0.5-1.2-0.7-1.7c-3.6-9.6-5.7-19.8-8.2-29.7c-2.3-9.3-4.4-18.8-7.5-27.9c-2.1-6-4.9-13.3-10.6-16.9
			c-6.2-3.9-17.1-4-23.5-0.6c-1.1,0.6-2.2,1.3-3.1,2.2c0,0,0,0,0.1,0c1.4-0.7,8.6-4,14.3,1.3C146.5,25.1,149,32,149,32s0,0,0-0.1
			c0.2,0.6,0.5,1.2,0.7,1.8c3.6,9.6,5.7,19.8,8.2,29.7c2.3,9.3,4.4,18.8,7.6,27.9c2.1,6,4.9,13.3,10.6,16.9c6.2,3.9,17.1,4,23.5,0.6
			c1.1-0.6,2.1-1.3,3.1-2.2c0,0,0,0,0,0C201.4,107.3,196.3,109.6,191.4,107.5z"/>
		
			<linearGradient id="SVGID_00000129914522467826332000000008573548065204589749_" gradientUnits="userSpaceOnUse" x1="209.9425" y1="21.2357" x2="209.9425" y2="102.6463" gradientTransform="matrix(1 0 0 -1 0 128)">
			<stop  offset="0" style="stop-color:#00BFA6"/>
			<stop  offset="1" style="stop-color:#008C8C"/>
		</linearGradient>
		<path style="fill:url(#SVGID_00000129914522467826332000000008573548065204589749_);" d="M213.5,29.6c-0.6,1.3-1.1,2.7-1.6,4.1
			c-3.6,9.7-5.8,19.9-8.4,29.9c-2.5,9.6-4.5,19.3-7.9,28.7c-1.3,3.6-2.8,7.2-4.9,10.4c-0.5,0.7-0.6,0.7-1.2,1.4
			c5.3,4.9,13,2.1,14.4,0.9c3.2-3.4,5-7.2,6.5-11.4c3.6-9.7,5.8-19.9,8.4-29.9c2.5-9.6,4.6-19.3,7.9-28.7c1-2.8,2.1-5.7,3.6-8.3
			C227.1,25,219.6,24,213.5,29.6z"/>
		<path class="st5" d="M332.5,24.4c3.7,4.6,5.6,10.7,5.6,18.2c0,7.3-1.8,13.3-5.5,17.8c-3.7,4.5-8.5,6.8-14.6,6.8h-15.6
			c-0.4,0-0.5,0.2-0.5,0.5v42.7c0,0.9-0.4,1.3-1.3,1.3H298c-0.9,0-1.3-0.4-1.3-1.3V18.9c0-0.9,0.4-1.3,1.3-1.3h19.9
			C323.9,17.5,328.8,19.8,332.5,24.4z M328.6,57.1c2.8-3.7,4.2-8.5,4.2-14.5c0-6.2-1.4-11.1-4.2-14.8c-2.8-3.7-6.6-5.5-11.3-5.5
			h-14.9c-0.4,0-0.5,0.2-0.5,0.5v39.2c0,0.4,0.2,0.5,0.5,0.5h14.9C322,62.6,325.8,60.8,328.6,57.1z M351.8,105.6
			c-3.9-4.1-5.8-9.4-5.8-15.9V37.8c0-6.6,2-12,5.9-16c3.9-4.1,9-6.1,15.3-6.1c6.3,0,11.5,2.1,15.5,6.2c4,4.1,6,9.4,6,16v51.9
			c0,6.5-2,11.8-6,15.9c-4,4.1-9.1,6.1-15.5,6.1C360.8,111.7,355.7,109.7,351.8,105.6z M378.9,102.2c3-3.2,4.5-7.3,4.5-12.3V37.5
			c0-5.1-1.5-9.2-4.5-12.4c-3-3.2-6.9-4.8-11.7-4.8c-4.7,0-8.6,1.6-11.5,4.8c-3,3.2-4.4,7.3-4.4,12.4V90c0,5,1.5,9.1,4.4,12.3
			c3,3.2,6.8,4.8,11.5,4.8C372,107,375.9,105.4,378.9,102.2z M399.3,110.4V19.1c0-0.9,0.4-1.3,1.3-1.3h2.6c0.9,0,1.3,0.4,1.3,1.3
			v87.3c0,0.4,0.2,0.5,0.5,0.5h31.8c0.9,0,1.3,0.4,1.3,1.3v2c0,0.9-0.4,1.3-1.3,1.3h-36.2C399.7,111.7,399.3,111.3,399.3,110.4z
			 M446.7,109.3V18.1c0-0.9,0.4-1.3,1.3-1.3h2.5c0.9,0,1.3,0.4,1.3,1.3v91.2c0,0.9-0.4,1.3-1.3,1.3h-2.5
			C447.2,110.6,446.7,110.2,446.7,109.3z M469,105.3c-3.8-4.3-5.7-9.9-5.7-16.9v-2.5c0-0.9,0.4-1.3,1.3-1.3h2.4
			c0.9,0,1.3,0.4,1.3,1.3v2.4c0,5.6,1.4,10.2,4.3,13.7c2.9,3.5,6.6,5.2,11.1,5.2c4.5,0,8.2-1.7,11.2-5c3-3.4,4.5-7.8,4.5-13.2
			c0-3.6-0.7-6.6-2.1-9.2c-1.4-2.5-3.2-4.8-5.3-6.6s-5.5-4.5-10.1-7.9c-4.6-3.4-8.1-6.3-10.5-8.6c-2.5-2.3-4.5-5.1-6-8.2
			c-1.5-3.1-2.3-6.8-2.3-11.1c0-6.7,1.8-12,5.5-15.8c3.7-3.8,8.5-5.8,14.4-5.8c6.3,0,11.3,2.2,15.1,6.5c3.8,4.3,5.7,10,5.7,17.1v3.4
			c0,0.9-0.4,1.3-1.3,1.3h-2.5c-0.9,0-1.3-0.4-1.3-1.3v-3.4c0-5.7-1.4-10.3-4.3-13.8c-2.9-3.5-6.6-5.2-11.3-5.2
			c-4.3,0-7.8,1.5-10.6,4.6c-2.8,3-4.2,7.3-4.2,12.7c0,3.2,0.6,6,1.7,8.4c1.2,2.4,2.8,4.6,5,6.6c2.2,2.1,5.5,4.7,9.9,7.9
			c5.3,3.9,9.2,7.1,11.7,9.5c2.5,2.4,4.5,5,5.9,7.8c1.4,2.8,2.1,6.2,2.1,10.3c0,7.2-1.9,12.9-5.8,17.2c-3.9,4.3-8.9,6.5-15,6.5
			C477.8,111.7,472.8,109.6,469,105.3z"/>
	</g>
</g>
</svg>
